<svg xmlns="http://www.w3.org/2000/svg" version="1.1" xmlns:xlink="http://www.w3.org/1999/xlink" xmlns:svgjs="http://svgjs.dev/svgjs" width="1000" height="1000" viewBox="0 0 1000 1000"><rect width="1000" height="1000" fill="#ffffff"></rect><g transform="matrix(0.7,0,0,0.7,149.57575757575756,429.5091940623237)"><svg viewBox="0 0 396 80" data-background-color="#d2d6dc" preserveAspectRatio="xMidYMid meet" height="202" width="1000" xmlns="http://www.w3.org/2000/svg" xmlns:xlink="http://www.w3.org/1999/xlink"><g id="tight-bounds" transform="matrix(1,0,0,1,0.2400000000000091,-0.11835590513359762)"><svg viewBox="0 0 395.52 80.23671181026718" height="80.23671181026718" width="395.52"><g><svg viewBox="0 0 395.52 80.23671181026718" height="80.23671181026718" width="395.52"><g><svg viewBox="0 0 395.52 80.23671181026718" height="80.23671181026718" width="395.52"><g><svg viewBox="0 0 395.52 80.23671181026718" height="80.23671181026718" width="395.52"><g><svg viewBox="0 0 395.52 80.23671181026718" height="80.23671181026718" width="395.52"><rect width="395.52" height="80.23671181026718" x="0" y="0" opacity="1" fill="#5f5f63" data-fill-palette-color="tertiary"></rect><g transform="matrix(1,0,0,1,23.607599999999998,23.607599999999998)"><svg width="348.3048" viewBox="3.490000009536743 -37.7400016784668 406.5899963378906 38.55000305175781" height="33.021511810267185" data-palette-color="#d2d6dc"><path d="M3.49-32.79L3.49-37.01 17.26-37.01Q19.8-37.01 22.09-36.35 24.39-35.69 26.37-34.5 28.34-33.3 29.96-31.63 31.57-29.96 32.7-27.91 33.84-25.85 34.45-23.5 35.06-21.14 35.06-18.6L35.06-18.6Q35.06-16.02 34.45-13.65 33.84-11.28 32.7-9.2 31.57-7.13 29.96-5.43 28.34-3.74 26.37-2.53 24.39-1.32 22.09-0.66 19.8 0 17.26 0L17.26 0 3.49 0 3.49-4.2 7.01-4.2 7.01-32.79 3.49-32.79ZM17.55-32.79L11.79-32.79 11.79-4.2 17.55-4.2Q20.12-4.2 22.38-5.32 24.63-6.45 26.32-8.39 28-10.33 28.98-12.95 29.96-15.58 29.96-18.6L29.96-18.6Q29.96-21.58 28.98-24.17 28-26.76 26.32-28.67 24.63-30.59 22.38-31.69 20.12-32.79 17.55-32.79L17.55-32.79ZM40.28-32.79L40.28-37.01 66.79-37.01 66.79-26.54 61.79-26.54 61.79-32.79 48.58-32.79 48.58-20.95 59.69-20.95 59.69-16.75 48.58-16.75 48.58-4.2 61.79-4.2 61.79-10.45 66.79-10.45 66.79 0 40.28 0 40.28-4.2 43.8-4.2 43.8-32.79 40.28-32.79ZM103.19-27.25L97.94-27.25Q96.31-30.03 93.61-31.62 90.91-33.2 87.59-33.2L87.59-33.2Q84.76-33.2 82.42-32.01 80.07-30.81 78.4-28.8 76.73-26.78 75.8-24.13 74.87-21.48 74.87-18.55L74.87-18.55Q74.87-15.09 75.9-12.41 76.92-9.74 78.57-7.97 80.22-6.2 82.49-5.02 84.76-3.83 87.59-3.83L87.59-3.83Q91.45-3.83 94.31-5.7 97.16-7.57 99.19-11.84L99.19-11.84 103.49-9.81Q102.56-7.18 100.34-4.72 98.12-2.27 94.86-0.77 91.6 0.73 87.64 0.73L87.64 0.73Q83.86 0.73 80.68-0.7 77.51-2.12 75.03-4.76 72.55-7.4 71.25-11.01 69.94-14.62 69.94-18.55L69.94-18.55Q69.94-22.51 71.25-26.03 72.55-29.54 74.91-32.14 77.27-34.74 80.52-36.24 83.78-37.74 87.59-37.74L87.59-37.74Q90.99-37.74 93.45-36.78 95.92-35.82 97.64-34.48 99.36-33.15 100.61-31.59L100.61-31.59 103.19-31.59 103.19-27.25ZM108.51-32.79L108.51-37.01 135.03-37.01 135.03-26.54 130.02-26.54 130.02-32.79 116.81-32.79 116.81-20.95 127.92-20.95 127.92-16.75 116.81-16.75 116.81-4.2 130.02-4.2 130.02-10.45 135.03-10.45 135.03 0 108.51 0 108.51-4.2 112.03-4.2 112.03-32.79 108.51-32.79ZM162.81-32.79L162.81-37.01 174.82-37.01 174.82-32.79 171.67-32.79 171.67 0 165.42 0 148.21-30.69 148.21-4.2 152.02-4.2 152.02 0 140 0 140-4.2 143.42-4.2 143.42-32.79 139.91-32.79 139.91-37.06 149.87-37.06 166.76-6.67 166.96-7.84 166.96-32.79 162.81-32.79ZM187.12 0L187.12-4.2 190.51-4.2 190.51-33.01 182.07-33.01 182.07-27.25 177.06-27.25 177.06-37.01 210.07-37.01 210.07-27.25 205.07-27.25 205.07-33.01 195.3-33.01 195.3-4.2 199.11-4.2 199.11 0 187.12 0ZM211.07 0Q211.07 0 211.07 0ZM244.46-26.95Q244.46-29.1 243.68-30.18 242.9-31.25 241.96-31.82 241.02-32.4 239.9-32.7 238.78-33.01 237.65-33.01L237.65-33.01Q235.8-33.01 234.41-32.58 233.01-32.15 232.1-31.42 231.18-30.69 230.72-29.71 230.26-28.74 230.26-27.66L230.26-27.66Q230.26-26.05 230.83-25.06 231.4-24.07 232.28-23.47 233.16-22.88 234.22-22.53 235.29-22.19 236.26-21.85L236.26-21.85 241.19-20.24Q243.42-19.53 245.11-18.63 246.81-17.72 247.96-16.49 249.1-15.26 249.7-13.65 250.3-12.04 250.3-9.91L250.3-9.91Q250.3-7.62 249.36-5.66 248.42-3.71 246.74-2.27 245.05-0.83 242.72-0.01 240.39 0.81 237.6 0.81L237.6 0.81Q234.75 0.81 232.72 0.16 230.7-0.49 229.32-1.57 227.94-2.66 227.11-4.05 226.28-5.44 225.81-6.91L225.81-6.91 223.96-6.91 223.96-11.11 230.11-11.11Q230.11-8.4 230.68-7.28 231.26-6.15 232.28-5.41 233.31-4.66 234.72-4.28 236.14-3.91 237.85-3.91L237.85-3.91Q239.51-3.91 240.84-4.3 242.17-4.69 243.11-5.43 244.05-6.18 244.55-7.24 245.05-8.3 245.05-9.64L245.05-9.64Q245.05-11.13 244.43-12.17 243.81-13.21 242.83-13.94 241.85-14.67 240.69-15.14 239.53-15.6 238.46-15.94L238.46-15.94 233.11-17.46Q231.35-17.99 229.9-18.82 228.45-19.65 227.41-20.85 226.37-22.05 225.81-23.65 225.25-25.24 225.25-27.34L225.25-27.34Q225.25-29.47 226.08-31.32 226.91-33.18 228.52-34.57 230.13-35.96 232.47-36.76 234.8-37.55 237.8-37.55L237.8-37.55Q239.78-37.55 241.45-37.08 243.12-36.62 244.48-35.78 245.83-34.94 246.87-33.75 247.91-32.57 248.62-31.15L248.62-31.15 250.45-31.15 250.45-26.95 244.46-26.95ZM254.3-32.79L254.3-37.01 266.29-37.01 266.29-32.79 262.5-32.79 262.5-15.55Q262.5-12.45 263.2-10.27 263.9-8.08 265.13-6.7 266.36-5.32 268.06-4.69 269.76-4.05 271.78-4.05L271.78-4.05Q273.88-4.05 275.64-4.61 277.4-5.18 278.65-6.51 279.91-7.84 280.61-10.05 281.3-12.26 281.3-15.55L281.3-15.55 281.3-32.79 277.3-32.79 277.3-37.01 289.29-37.01 289.29-32.79 285.99-32.79 285.99-16.09Q285.99-12.08 284.88-8.98 283.77-5.88 281.84-3.78 279.91-1.68 277.3-0.6 274.69 0.49 271.68 0.49L271.68 0.49Q268.75 0.49 266.2-0.59 263.65-1.66 261.76-3.74 259.87-5.81 258.78-8.8 257.69-11.79 257.69-15.65L257.69-15.65 257.69-32.79 254.3-32.79ZM292.87-32.79L292.87-37.01 307.84-37.01Q310.33-37.01 312.42-36.36 314.5-35.72 316.03-34.46 317.56-33.2 318.4-31.32 319.24-29.44 319.24-27L319.24-27Q319.24-24.98 318.41-23.18 317.58-21.39 316.07-20.04 314.55-18.7 312.44-17.92 310.33-17.14 307.74-17.14L307.74-17.14 301.17-17.14 301.17-4.2 304.88-4.2 304.88 0 292.87 0 292.87-4.2 296.39-4.2 296.39-32.79 292.87-32.79ZM307.23-32.79L301.17-32.79 301.17-21.14 307.84-21.14Q309.23-21.14 310.39-21.52 311.55-21.9 312.39-22.63 313.23-23.36 313.71-24.46 314.19-25.56 314.19-27L314.19-27Q314.19-29.74 312.53-31.26 310.87-32.79 307.23-32.79L307.23-32.79ZM323.93-32.79L323.93-37.01 338.89-37.01Q341.38-37.01 343.47-36.36 345.56-35.72 347.08-34.46 348.61-33.2 349.45-31.32 350.29-29.44 350.29-27L350.29-27Q350.29-24.98 349.46-23.18 348.63-21.39 347.12-20.04 345.6-18.7 343.49-17.92 341.38-17.14 338.79-17.14L338.79-17.14 332.23-17.14 332.23-4.2 335.94-4.2 335.94 0 323.93 0 323.93-4.2 327.44-4.2 327.44-32.79 323.93-32.79ZM338.28-32.79L332.23-32.79 332.23-21.14 338.89-21.14Q340.28-21.14 341.44-21.52 342.6-21.9 343.44-22.63 344.29-23.36 344.76-24.46 345.24-25.56 345.24-27L345.24-27Q345.24-29.74 343.58-31.26 341.92-32.79 338.28-32.79L338.28-32.79ZM354.98-32.79L354.98-37.01 366.99-37.01 366.99-32.79 363.28-32.79 363.28-4.2 376.05-4.2Q376.44-4.2 376.83-4.38 377.22-4.57 377.54-4.86 377.85-5.15 378.05-5.53 378.24-5.91 378.24-6.3L378.24-6.3 378.24-10.96 382.88-10.96 382.88 0 354.98 0 354.98-4.2 358.49-4.2 358.49-32.79 354.98-32.79ZM379.02-32.79L379.02-37.01 391.03-37.01 391.03-32.79 387.52-32.79 394.48-20.9 401.92-32.79 398.07-32.79 398.07-37.01 410.08-37.01 410.08-32.79 406.93-32.79 396.53-17.02 396.53-4.2 400.34-4.2 400.34 0 388.32 0 388.32-4.2 391.72-4.2 391.72-17.14 381.9-32.79 379.02-32.79Z" opacity="1" transform="matrix(1,0,0,1,0,0)" fill="#d2d6dc" class="undefined-text-0" data-fill-palette-color="quaternary" id="text-0"></path></svg></g></svg></g></svg></g></svg></g></svg></g><defs></defs></svg><rect width="395.52" height="80.23671181026718" fill="none" stroke="none" visibility="hidden"></rect></g></svg></g></svg>